<mxfile host="app.diagrams.net" modified="2022-01-14T03:51:12.370Z" agent="5.0 (Macintosh; Intel Mac OS X 10_15_7) AppleWebKit/537.36 (KHTML, like Gecko) Chrome/97.0.4692.71 Safari/537.36" etag="bv5kf7V407dOQxJxSeUY" version="16.2.6" type="github">
  <diagram name="Page-1" id="97916047-d0de-89f5-080d-49f4d83e522f">
    <mxGraphModel dx="2653.5" dy="641" grid="1" gridSize="10" guides="1" tooltips="1" connect="1" arrows="1" fold="1" page="1" pageScale="1.5" pageWidth="1169" pageHeight="827" background="none" math="0" shadow="0">
      <root>
        <mxCell id="0" />
        <mxCell id="1" parent="0" />
        <mxCell id="3" value="REDART / VIEWINGROOM&#xa;APP" style="rounded=1;fillColor=#10739E;strokeColor=none;shadow=1;gradientColor=none;fontStyle=1;fontColor=#FFFFFF;fontSize=14;" parent="1" vertex="1">
          <mxGeometry x="805" y="30" width="220" height="60" as="geometry" />
        </mxCell>
        <mxCell id="8" value="MAIN / HOME" style="rounded=1;fillColor=#10739E;strokeColor=none;shadow=1;gradientColor=none;fontStyle=1;fontColor=#FFFFFF;fontSize=14;" parent="1" vertex="1">
          <mxGeometry x="100" y="200" width="100" height="20" as="geometry" />
        </mxCell>
        <mxCell id="2zvDSiaRfBO-3n8Pwa8q-91" style="edgeStyle=orthogonalEdgeStyle;rounded=0;orthogonalLoop=1;jettySize=auto;html=1;entryX=1;entryY=0.5;entryDx=0;entryDy=0;fontSize=11;exitX=0.537;exitY=1.025;exitDx=0;exitDy=0;exitPerimeter=0;" edge="1" parent="1" source="2zvDSiaRfBO-3n8Pwa8q-101" target="2zvDSiaRfBO-3n8Pwa8q-88">
          <mxGeometry relative="1" as="geometry" />
        </mxCell>
        <mxCell id="2zvDSiaRfBO-3n8Pwa8q-93" style="edgeStyle=orthogonalEdgeStyle;rounded=0;orthogonalLoop=1;jettySize=auto;html=1;fontSize=11;exitX=0.524;exitY=1.025;exitDx=0;exitDy=0;exitPerimeter=0;entryX=0;entryY=0.75;entryDx=0;entryDy=0;" edge="1" parent="1" source="2zvDSiaRfBO-3n8Pwa8q-101" target="2zvDSiaRfBO-3n8Pwa8q-89">
          <mxGeometry relative="1" as="geometry">
            <mxPoint x="35.04999999999973" y="367.1200000000001" as="sourcePoint" />
            <mxPoint x="100" y="490" as="targetPoint" />
            <Array as="points">
              <mxPoint x="35" y="490" />
              <mxPoint x="105" y="490" />
            </Array>
          </mxGeometry>
        </mxCell>
        <mxCell id="2zvDSiaRfBO-3n8Pwa8q-102" style="edgeStyle=orthogonalEdgeStyle;rounded=0;orthogonalLoop=1;jettySize=auto;html=1;exitX=0.5;exitY=1;exitDx=0;exitDy=0;entryX=0.994;entryY=0.006;entryDx=0;entryDy=0;fontSize=6;entryPerimeter=0;" edge="1" parent="1" source="8" target="2zvDSiaRfBO-3n8Pwa8q-100">
          <mxGeometry relative="1" as="geometry">
            <mxPoint x="194.99999999999955" y="295" as="sourcePoint" />
            <Array as="points">
              <mxPoint x="150" y="300" />
            </Array>
          </mxGeometry>
        </mxCell>
        <mxCell id="10" value="최신순" style="rounded=1;fillColor=#10739E;strokeColor=none;shadow=1;gradientColor=none;fontStyle=1;fontColor=#FFFFFF;fontSize=14;" parent="1" vertex="1">
          <mxGeometry x="60" y="870" width="60" height="20" as="geometry" />
        </mxCell>
        <mxCell id="2zvDSiaRfBO-3n8Pwa8q-83" value="" style="edgeStyle=orthogonalEdgeStyle;rounded=0;orthogonalLoop=1;jettySize=auto;html=1;" edge="1" parent="1" source="11">
          <mxGeometry relative="1" as="geometry">
            <mxPoint x="-65" y="710" as="targetPoint" />
          </mxGeometry>
        </mxCell>
        <mxCell id="11" value="상품 디테일 페이지" style="rounded=1;fillColor=#10739E;strokeColor=none;shadow=1;gradientColor=none;fontStyle=1;fontColor=#FFFFFF;fontSize=14;" parent="1" vertex="1">
          <mxGeometry x="-125" y="590" width="120" height="30" as="geometry" />
        </mxCell>
        <mxCell id="12" value="구매 연결 시 CHAT 페이지 이동" style="rounded=1;fillColor=#10739E;strokeColor=none;shadow=1;gradientColor=none;fontStyle=1;fontColor=#FFFFFF;fontSize=14;" parent="1" vertex="1">
          <mxGeometry x="-165" y="710" width="200" height="29.75" as="geometry" />
        </mxCell>
        <mxCell id="13" value="SEARCH" style="rounded=1;fillColor=#10739E;strokeColor=none;shadow=1;gradientColor=none;fontStyle=1;fontColor=#FFFFFF;fontSize=14;" parent="1" vertex="1">
          <mxGeometry x="460" y="190" width="200" height="60" as="geometry" />
        </mxCell>
        <mxCell id="14" value="Database Administration" style="rounded=1;fillColor=#10739E;strokeColor=none;shadow=1;gradientColor=none;fontStyle=1;fontColor=#FFFFFF;fontSize=14;" parent="1" vertex="1">
          <mxGeometry x="460" y="280" width="200" height="60" as="geometry" />
        </mxCell>
        <mxCell id="15" value="Office of Technology &#xa;Research" style="rounded=1;fillColor=#10739E;strokeColor=none;shadow=1;gradientColor=none;fontStyle=1;fontColor=#FFFFFF;fontSize=14;" parent="1" vertex="1">
          <mxGeometry x="460" y="370" width="200" height="60" as="geometry" />
        </mxCell>
        <mxCell id="16" value="Office of&#xa;Data Services" style="rounded=1;fillColor=#10739E;strokeColor=none;shadow=1;gradientColor=none;fontStyle=1;fontColor=#FFFFFF;fontSize=14;" parent="1" vertex="1">
          <mxGeometry x="460" y="460" width="200" height="60" as="geometry" />
        </mxCell>
        <mxCell id="18" value="CHAT" style="rounded=1;fillColor=#10739E;strokeColor=none;shadow=1;gradientColor=none;fontStyle=1;fontColor=#FFFFFF;fontSize=14;" parent="1" vertex="1">
          <mxGeometry x="750" y="190" width="200" height="60" as="geometry" />
        </mxCell>
        <mxCell id="19" value="Office of Financial &#xa;Management" style="rounded=1;fillColor=#10739E;strokeColor=none;shadow=1;gradientColor=none;fontStyle=1;fontColor=#FFFFFF;fontSize=14;" parent="1" vertex="1">
          <mxGeometry x="750" y="280" width="200" height="60" as="geometry" />
        </mxCell>
        <mxCell id="20" value="Office of Human Resources" style="rounded=1;fillColor=#10739E;strokeColor=none;shadow=1;gradientColor=none;fontStyle=1;fontColor=#FFFFFF;fontSize=14;" parent="1" vertex="1">
          <mxGeometry x="750" y="370" width="200" height="60" as="geometry" />
        </mxCell>
        <mxCell id="21" value="Office of Management " style="rounded=1;fillColor=#10739E;strokeColor=none;shadow=1;gradientColor=none;fontStyle=1;fontColor=#FFFFFF;fontSize=14;" parent="1" vertex="1">
          <mxGeometry x="750" y="460" width="200" height="60" as="geometry" />
        </mxCell>
        <mxCell id="22" value="Office of Training Services" style="rounded=1;fillColor=#10739E;strokeColor=none;shadow=1;gradientColor=none;fontStyle=1;fontColor=#FFFFFF;fontSize=14;" parent="1" vertex="1">
          <mxGeometry x="750" y="550" width="200" height="60" as="geometry" />
        </mxCell>
        <mxCell id="23" value="COMMUNITY" style="rounded=1;fillColor=#10739E;strokeColor=none;shadow=1;gradientColor=none;fontStyle=1;fontColor=#FFFFFF;fontSize=14;" parent="1" vertex="1">
          <mxGeometry x="1220" y="190" width="200" height="60" as="geometry" />
        </mxCell>
        <mxCell id="24" value="Office of Regulatory Policy" style="rounded=1;fillColor=#10739E;strokeColor=none;shadow=1;gradientColor=none;fontStyle=1;fontColor=#FFFFFF;fontSize=14;" parent="1" vertex="1">
          <mxGeometry x="1220" y="280" width="200" height="60" as="geometry" />
        </mxCell>
        <mxCell id="25" value="Office Compliance" style="rounded=1;fillColor=#10739E;strokeColor=none;shadow=1;gradientColor=none;fontStyle=1;fontColor=#FFFFFF;fontSize=14;" parent="1" vertex="1">
          <mxGeometry x="1220" y="370" width="200" height="60" as="geometry" />
        </mxCell>
        <mxCell id="26" value="Office of &#xa;Enforcement" style="rounded=1;fillColor=#10739E;strokeColor=none;shadow=1;gradientColor=none;fontStyle=1;fontColor=#FFFFFF;fontSize=14;" parent="1" vertex="1">
          <mxGeometry x="1220" y="460" width="200" height="60" as="geometry" />
        </mxCell>
        <mxCell id="27" value="Office of&#xa; Regulatory Support" style="rounded=1;fillColor=#10739E;strokeColor=none;shadow=1;gradientColor=none;fontStyle=1;fontColor=#FFFFFF;fontSize=14;" parent="1" vertex="1">
          <mxGeometry x="1220" y="550" width="200" height="60" as="geometry" />
        </mxCell>
        <mxCell id="34" value="" style="edgeStyle=elbowEdgeStyle;elbow=vertical;strokeWidth=4;endArrow=block;endFill=1;fontStyle=1;strokeColor=#23445D;" parent="1" source="3" target="8" edge="1">
          <mxGeometry x="170" y="65.5" width="100" height="100" as="geometry">
            <mxPoint x="170" y="165.5" as="sourcePoint" />
            <mxPoint x="270" y="65.5" as="targetPoint" />
            <Array as="points">
              <mxPoint x="668" y="170" />
              <mxPoint x="668" y="180" />
              <mxPoint x="700" y="455.5" />
            </Array>
          </mxGeometry>
        </mxCell>
        <mxCell id="37" value="" style="edgeStyle=elbowEdgeStyle;elbow=vertical;strokeWidth=4;endArrow=block;endFill=1;fontStyle=1;strokeColor=#23445D;" parent="1" source="3" target="23" edge="1">
          <mxGeometry x="170" y="65.5" width="100" height="100" as="geometry">
            <mxPoint x="170" y="165.5" as="sourcePoint" />
            <mxPoint x="270" y="65.5" as="targetPoint" />
            <Array as="points">
              <mxPoint x="1198" y="170" />
              <mxPoint x="1120" y="455.5" />
            </Array>
          </mxGeometry>
        </mxCell>
        <mxCell id="42" value="" style="edgeStyle=elbowEdgeStyle;elbow=vertical;strokeWidth=4;endArrow=block;endFill=1;fontStyle=1;strokeColor=#23445D;" parent="1" source="13" target="14" edge="1">
          <mxGeometry x="-30" y="-260" width="100" height="100" as="geometry">
            <mxPoint x="-30" y="-160" as="sourcePoint" />
            <mxPoint x="70" y="-260" as="targetPoint" />
          </mxGeometry>
        </mxCell>
        <mxCell id="43" value="" style="edgeStyle=elbowEdgeStyle;elbow=vertical;strokeWidth=4;endArrow=block;endFill=1;fontStyle=1;strokeColor=#23445D;" parent="1" source="14" target="15" edge="1">
          <mxGeometry x="-30" y="-250" width="100" height="100" as="geometry">
            <mxPoint x="-30" y="-150" as="sourcePoint" />
            <mxPoint x="70" y="-250" as="targetPoint" />
          </mxGeometry>
        </mxCell>
        <mxCell id="44" value="" style="edgeStyle=elbowEdgeStyle;elbow=vertical;strokeWidth=4;endArrow=block;endFill=1;fontStyle=1;strokeColor=#23445D;" parent="1" source="15" target="16" edge="1">
          <mxGeometry x="-30" y="-240" width="100" height="100" as="geometry">
            <mxPoint x="-30" y="-140" as="sourcePoint" />
            <mxPoint x="70" y="-240" as="targetPoint" />
          </mxGeometry>
        </mxCell>
        <mxCell id="46" value="" style="edgeStyle=elbowEdgeStyle;elbow=vertical;strokeWidth=4;endArrow=block;endFill=1;fontStyle=1;strokeColor=#23445D;" parent="1" source="18" target="19" edge="1">
          <mxGeometry x="-20" y="-260" width="100" height="100" as="geometry">
            <mxPoint x="-20" y="-160" as="sourcePoint" />
            <mxPoint x="80" y="-260" as="targetPoint" />
          </mxGeometry>
        </mxCell>
        <mxCell id="47" value="" style="edgeStyle=elbowEdgeStyle;elbow=vertical;strokeWidth=4;endArrow=block;endFill=1;fontStyle=1;strokeColor=#23445D;" parent="1" source="19" target="20" edge="1">
          <mxGeometry x="-20" y="-250" width="100" height="100" as="geometry">
            <mxPoint x="-20" y="-150" as="sourcePoint" />
            <mxPoint x="80" y="-250" as="targetPoint" />
          </mxGeometry>
        </mxCell>
        <mxCell id="48" value="" style="edgeStyle=elbowEdgeStyle;elbow=vertical;strokeWidth=4;endArrow=block;endFill=1;fontStyle=1;strokeColor=#23445D;" parent="1" source="20" target="21" edge="1">
          <mxGeometry x="-20" y="-240" width="100" height="100" as="geometry">
            <mxPoint x="-20" y="-140" as="sourcePoint" />
            <mxPoint x="80" y="-240" as="targetPoint" />
          </mxGeometry>
        </mxCell>
        <mxCell id="49" value="" style="edgeStyle=elbowEdgeStyle;elbow=vertical;strokeWidth=4;endArrow=block;endFill=1;fontStyle=1;strokeColor=#23445D;" parent="1" source="21" target="22" edge="1">
          <mxGeometry x="-20" y="-230" width="100" height="100" as="geometry">
            <mxPoint x="-20" y="-130" as="sourcePoint" />
            <mxPoint x="80" y="-230" as="targetPoint" />
          </mxGeometry>
        </mxCell>
        <mxCell id="50" value="" style="edgeStyle=elbowEdgeStyle;elbow=vertical;strokeWidth=4;endArrow=block;endFill=1;fontStyle=1;strokeColor=#23445D;" parent="1" source="23" target="24" edge="1">
          <mxGeometry x="200" y="-260" width="100" height="100" as="geometry">
            <mxPoint x="200" y="-160" as="sourcePoint" />
            <mxPoint x="300" y="-260" as="targetPoint" />
          </mxGeometry>
        </mxCell>
        <mxCell id="51" value="" style="edgeStyle=elbowEdgeStyle;elbow=vertical;strokeWidth=4;endArrow=block;endFill=1;fontStyle=1;strokeColor=#23445D;" parent="1" source="24" target="25" edge="1">
          <mxGeometry x="200" y="-250" width="100" height="100" as="geometry">
            <mxPoint x="200" y="-150" as="sourcePoint" />
            <mxPoint x="300" y="-250" as="targetPoint" />
          </mxGeometry>
        </mxCell>
        <mxCell id="52" value="" style="edgeStyle=elbowEdgeStyle;elbow=vertical;strokeWidth=4;endArrow=block;endFill=1;fontStyle=1;strokeColor=#23445D;" parent="1" source="25" target="26" edge="1">
          <mxGeometry x="200" y="-240" width="100" height="100" as="geometry">
            <mxPoint x="200" y="-140" as="sourcePoint" />
            <mxPoint x="300" y="-240" as="targetPoint" />
          </mxGeometry>
        </mxCell>
        <mxCell id="53" value="" style="edgeStyle=elbowEdgeStyle;elbow=vertical;strokeWidth=4;endArrow=block;endFill=1;fontStyle=1;strokeColor=#23445D;" parent="1" source="26" target="27" edge="1">
          <mxGeometry x="200" y="-230" width="100" height="100" as="geometry">
            <mxPoint x="200" y="-130" as="sourcePoint" />
            <mxPoint x="300" y="-230" as="targetPoint" />
          </mxGeometry>
        </mxCell>
        <mxCell id="54" value="" style="edgeStyle=elbowEdgeStyle;elbow=vertical;strokeWidth=4;endArrow=block;endFill=1;fontStyle=1;strokeColor=#23445D;" parent="1" source="3" target="13" edge="1">
          <mxGeometry x="170" y="65.5" width="100" height="100" as="geometry">
            <mxPoint x="170" y="165.5" as="sourcePoint" />
            <mxPoint x="270" y="65.5" as="targetPoint" />
            <Array as="points">
              <mxPoint x="915" y="170" />
              <mxPoint x="800" y="455.5" />
            </Array>
          </mxGeometry>
        </mxCell>
        <mxCell id="55" value="" style="edgeStyle=elbowEdgeStyle;elbow=vertical;strokeWidth=4;endArrow=block;endFill=1;fontStyle=1;strokeColor=#23445D;entryX=0.5;entryY=0;entryDx=0;entryDy=0;exitX=0.5;exitY=1;exitDx=0;exitDy=0;" parent="1" source="3" target="18" edge="1">
          <mxGeometry x="170" y="65.5" width="100" height="100" as="geometry">
            <mxPoint x="915" y="100" as="sourcePoint" />
            <mxPoint x="270" y="65.5" as="targetPoint" />
            <Array as="points">
              <mxPoint x="880" y="170" />
              <mxPoint x="915" y="170" />
              <mxPoint x="1090" y="455.5" />
            </Array>
          </mxGeometry>
        </mxCell>
        <mxCell id="2zvDSiaRfBO-3n8Pwa8q-55" value="MYPAGE" style="rounded=1;fillColor=#10739E;strokeColor=none;shadow=1;gradientColor=none;fontStyle=1;fontColor=#FFFFFF;fontSize=14;" vertex="1" parent="1">
          <mxGeometry x="1490" y="190" width="200" height="60" as="geometry" />
        </mxCell>
        <mxCell id="2zvDSiaRfBO-3n8Pwa8q-56" value="Office of Regulatory Policy" style="rounded=1;fillColor=#10739E;strokeColor=none;shadow=1;gradientColor=none;fontStyle=1;fontColor=#FFFFFF;fontSize=14;" vertex="1" parent="1">
          <mxGeometry x="1490" y="280" width="200" height="60" as="geometry" />
        </mxCell>
        <mxCell id="2zvDSiaRfBO-3n8Pwa8q-57" value="Office Compliance" style="rounded=1;fillColor=#10739E;strokeColor=none;shadow=1;gradientColor=none;fontStyle=1;fontColor=#FFFFFF;fontSize=14;" vertex="1" parent="1">
          <mxGeometry x="1490" y="370" width="200" height="60" as="geometry" />
        </mxCell>
        <mxCell id="2zvDSiaRfBO-3n8Pwa8q-58" value="Office of &#xa;Enforcement" style="rounded=1;fillColor=#10739E;strokeColor=none;shadow=1;gradientColor=none;fontStyle=1;fontColor=#FFFFFF;fontSize=14;" vertex="1" parent="1">
          <mxGeometry x="1490" y="460" width="200" height="60" as="geometry" />
        </mxCell>
        <mxCell id="2zvDSiaRfBO-3n8Pwa8q-59" value="Office of&#xa; Regulatory Support" style="rounded=1;fillColor=#10739E;strokeColor=none;shadow=1;gradientColor=none;fontStyle=1;fontColor=#FFFFFF;fontSize=14;" vertex="1" parent="1">
          <mxGeometry x="1490" y="550" width="200" height="60" as="geometry" />
        </mxCell>
        <mxCell id="2zvDSiaRfBO-3n8Pwa8q-60" value="" style="edgeStyle=elbowEdgeStyle;elbow=vertical;strokeWidth=4;endArrow=block;endFill=1;fontStyle=1;strokeColor=#23445D;" edge="1" parent="1" source="2zvDSiaRfBO-3n8Pwa8q-55" target="2zvDSiaRfBO-3n8Pwa8q-56">
          <mxGeometry x="470" y="-260" width="100" height="100" as="geometry">
            <mxPoint x="470" y="-160" as="sourcePoint" />
            <mxPoint x="570" y="-260" as="targetPoint" />
          </mxGeometry>
        </mxCell>
        <mxCell id="2zvDSiaRfBO-3n8Pwa8q-61" value="" style="edgeStyle=elbowEdgeStyle;elbow=vertical;strokeWidth=4;endArrow=block;endFill=1;fontStyle=1;strokeColor=#23445D;" edge="1" parent="1" source="2zvDSiaRfBO-3n8Pwa8q-56" target="2zvDSiaRfBO-3n8Pwa8q-57">
          <mxGeometry x="470" y="-250" width="100" height="100" as="geometry">
            <mxPoint x="470" y="-150" as="sourcePoint" />
            <mxPoint x="570" y="-250" as="targetPoint" />
          </mxGeometry>
        </mxCell>
        <mxCell id="2zvDSiaRfBO-3n8Pwa8q-62" value="" style="edgeStyle=elbowEdgeStyle;elbow=vertical;strokeWidth=4;endArrow=block;endFill=1;fontStyle=1;strokeColor=#23445D;" edge="1" parent="1" source="2zvDSiaRfBO-3n8Pwa8q-57" target="2zvDSiaRfBO-3n8Pwa8q-58">
          <mxGeometry x="470" y="-240" width="100" height="100" as="geometry">
            <mxPoint x="470" y="-140" as="sourcePoint" />
            <mxPoint x="570" y="-240" as="targetPoint" />
          </mxGeometry>
        </mxCell>
        <mxCell id="2zvDSiaRfBO-3n8Pwa8q-63" value="" style="edgeStyle=elbowEdgeStyle;elbow=vertical;strokeWidth=4;endArrow=block;endFill=1;fontStyle=1;strokeColor=#23445D;" edge="1" parent="1" source="2zvDSiaRfBO-3n8Pwa8q-58" target="2zvDSiaRfBO-3n8Pwa8q-59">
          <mxGeometry x="470" y="-230" width="100" height="100" as="geometry">
            <mxPoint x="470" y="-130" as="sourcePoint" />
            <mxPoint x="570" y="-230" as="targetPoint" />
          </mxGeometry>
        </mxCell>
        <mxCell id="2zvDSiaRfBO-3n8Pwa8q-64" value="" style="edgeStyle=elbowEdgeStyle;elbow=vertical;strokeWidth=4;endArrow=block;endFill=1;fontStyle=1;strokeColor=#23445D;entryX=0.5;entryY=0;entryDx=0;entryDy=0;exitX=0.5;exitY=1;exitDx=0;exitDy=0;" edge="1" parent="1" source="3" target="2zvDSiaRfBO-3n8Pwa8q-55">
          <mxGeometry x="445" y="15.5" width="100" height="100" as="geometry">
            <mxPoint x="1190" y="40" as="sourcePoint" />
            <mxPoint x="1594.9999999999995" y="140" as="targetPoint" />
            <Array as="points">
              <mxPoint x="1250" y="170" />
              <mxPoint x="1395" y="405.5" />
            </Array>
          </mxGeometry>
        </mxCell>
        <mxCell id="2zvDSiaRfBO-3n8Pwa8q-68" value="조회순" style="rounded=1;fillColor=#10739E;strokeColor=none;shadow=1;gradientColor=none;fontStyle=1;fontColor=#FFFFFF;fontSize=14;" vertex="1" parent="1">
          <mxGeometry x="140" y="870" width="60" height="20" as="geometry" />
        </mxCell>
        <mxCell id="2zvDSiaRfBO-3n8Pwa8q-70" value="어플 추천순" style="rounded=1;fillColor=#10739E;strokeColor=none;shadow=1;gradientColor=none;fontStyle=1;fontColor=#FFFFFF;fontSize=14;" vertex="1" parent="1">
          <mxGeometry x="220" y="870" width="70" height="20" as="geometry" />
        </mxCell>
        <mxCell id="2zvDSiaRfBO-3n8Pwa8q-71" value="좋아요 순" style="rounded=1;fillColor=#10739E;strokeColor=none;shadow=1;gradientColor=none;fontStyle=1;fontColor=#FFFFFF;fontSize=14;" vertex="1" parent="1">
          <mxGeometry x="300" y="870" width="60" height="20" as="geometry" />
        </mxCell>
        <mxCell id="2zvDSiaRfBO-3n8Pwa8q-92" value="" style="edgeStyle=orthogonalEdgeStyle;rounded=0;orthogonalLoop=1;jettySize=auto;html=1;fontSize=11;" edge="1" parent="1" source="2zvDSiaRfBO-3n8Pwa8q-88" target="11">
          <mxGeometry relative="1" as="geometry" />
        </mxCell>
        <mxCell id="2zvDSiaRfBO-3n8Pwa8q-88" value="상품 클릭 시" style="rounded=1;whiteSpace=wrap;html=1;fontSize=11;" vertex="1" parent="1">
          <mxGeometry x="-125" y="479" width="120" height="20" as="geometry" />
        </mxCell>
        <mxCell id="2zvDSiaRfBO-3n8Pwa8q-97" style="edgeStyle=orthogonalEdgeStyle;rounded=0;orthogonalLoop=1;jettySize=auto;html=1;entryX=0.5;entryY=0;entryDx=0;entryDy=0;fontSize=11;" edge="1" parent="1">
          <mxGeometry relative="1" as="geometry">
            <mxPoint x="179.02941176470586" y="497" as="sourcePoint" />
            <mxPoint x="164.99999999999955" y="590" as="targetPoint" />
            <Array as="points">
              <mxPoint x="159" y="497" />
              <mxPoint x="159" y="590" />
            </Array>
          </mxGeometry>
        </mxCell>
        <mxCell id="2zvDSiaRfBO-3n8Pwa8q-89" value="판매자 (갤러리) 클릭시" style="rounded=1;whiteSpace=wrap;html=1;fontSize=11;" vertex="1" parent="1">
          <mxGeometry x="119" y="467" width="110" height="30" as="geometry" />
        </mxCell>
        <mxCell id="2zvDSiaRfBO-3n8Pwa8q-94" value="" style="edgeStyle=orthogonalEdgeStyle;rounded=0;orthogonalLoop=1;jettySize=auto;html=1;" edge="1" parent="1" source="2zvDSiaRfBO-3n8Pwa8q-95" target="2zvDSiaRfBO-3n8Pwa8q-96">
          <mxGeometry relative="1" as="geometry" />
        </mxCell>
        <mxCell id="2zvDSiaRfBO-3n8Pwa8q-95" value="판매자 디테일 페이지" style="rounded=1;fillColor=#10739E;strokeColor=none;shadow=1;gradientColor=none;fontStyle=1;fontColor=#FFFFFF;fontSize=14;" vertex="1" parent="1">
          <mxGeometry x="100" y="590" width="120" height="30" as="geometry" />
        </mxCell>
        <mxCell id="2zvDSiaRfBO-3n8Pwa8q-96" value="구매 연결 시 CHAT 페이지 이동" style="rounded=1;fillColor=#10739E;strokeColor=none;shadow=1;gradientColor=none;fontStyle=1;fontColor=#FFFFFF;fontSize=14;" vertex="1" parent="1">
          <mxGeometry x="60" y="710" width="200" height="29.75" as="geometry" />
        </mxCell>
        <mxCell id="2zvDSiaRfBO-3n8Pwa8q-98" value="상품리스트" style="swimlane;fontStyle=0;childLayout=stackLayout;horizontal=1;startSize=30;horizontalStack=0;resizeParent=1;resizeParentMax=0;resizeLast=0;collapsible=1;marginBottom=0;fontSize=10;" vertex="1" parent="1">
          <mxGeometry x="-10" y="240" width="85" height="120" as="geometry" />
        </mxCell>
        <mxCell id="2zvDSiaRfBO-3n8Pwa8q-99" value="Item 1 / 판매자" style="text;strokeColor=none;fillColor=none;align=left;verticalAlign=middle;spacingLeft=4;spacingRight=4;overflow=hidden;points=[[0,0.5],[1,0.5]];portConstraint=eastwest;rotatable=0;fontSize=11;" vertex="1" parent="2zvDSiaRfBO-3n8Pwa8q-98">
          <mxGeometry y="30" width="85" height="30" as="geometry" />
        </mxCell>
        <mxCell id="2zvDSiaRfBO-3n8Pwa8q-100" value="Item 2 / 판매자" style="text;strokeColor=none;fillColor=none;align=left;verticalAlign=middle;spacingLeft=4;spacingRight=4;overflow=hidden;points=[[0,0.5],[1,0.5]];portConstraint=eastwest;rotatable=0;fontSize=11;" vertex="1" parent="2zvDSiaRfBO-3n8Pwa8q-98">
          <mxGeometry y="60" width="85" height="30" as="geometry" />
        </mxCell>
        <mxCell id="2zvDSiaRfBO-3n8Pwa8q-101" value="Item 3 / 판매자" style="text;strokeColor=none;fillColor=none;align=left;verticalAlign=middle;spacingLeft=4;spacingRight=4;overflow=hidden;points=[[0,0.5],[1,0.5]];portConstraint=eastwest;rotatable=0;fontSize=11;" vertex="1" parent="2zvDSiaRfBO-3n8Pwa8q-98">
          <mxGeometry y="90" width="85" height="30" as="geometry" />
        </mxCell>
      </root>
    </mxGraphModel>
  </diagram>
</mxfile>
